<svg xmlns="http://www.w3.org/2000/svg" xmlns:xlink="http://www.w3.org/1999/xlink" viewBox="0 0 262.2 212.7"><defs><style>.cls-1{fill:#fff;}.cls-2{fill:#67d4cf;}.cls-3{fill:url(#linear-gradient);}.cls-4,.cls-5{fill:none;stroke:#fff;stroke-miterlimit:10;}.cls-4{stroke-width:5px;}.cls-5{stroke-width:8px;}</style><linearGradient id="linear-gradient" x1="255.45" y1="330.82" x2="181" y2="330.33" gradientTransform="translate(-42.7 -176.4) rotate(-0.6)" gradientUnits="userSpaceOnUse"><stop offset="0" stop-color="#fff"/><stop offset="1" stop-color="#67d4cf"/></linearGradient></defs><title>Logo</title><g id="Layer_1" data-name="Layer 1"><g id="Layer_2-2" data-name="Layer 2"><path class="cls-1" d="M142.5,231.7h-1.9a58.4,58.4,0,0,1-5.4-2.6c-7.8-4.5-15-10.1-21.9-15.8a639.7,639.7,0,0,1-64.6-60.1,280.2,280.2,0,0,1-25.2-30.4c-5.5-7.9-9.5-16.2-10.8-25.9l-.8-6.4V82.3l.2-1.2c.6-3.4.8-6.9,1.7-10.3,7.9-33.4,39.8-56.7,75.7-50.9,24.6,3.9,41.9,17.9,52,40.8.6,1.2.9,2.4,1.5,3.8l.5-1.2a67.4,67.4,0,0,1,72.2-43.6,64.5,64.5,0,0,1,42,22.5c12.1,14,17.5,30.5,16.3,48.9a55.6,55.6,0,0,1-8.9,27.7,193.6,193.6,0,0,1-17.3,22.3,607.4,607.4,0,0,1-84,77.7C156.9,223.7,150.3,228.8,142.5,231.7Z" transform="translate(-11.7 -19)"/></g><g id="Layer_2-2-2" data-name="Layer 2-2"><path class="cls-2" d="M142.2,224.2h-1.7c-1.6-.8-3.4-1.5-4.9-2.4a166.1,166.1,0,0,1-20.2-14.4,586,586,0,0,1-59.2-55.1,256.7,256.7,0,0,1-23.1-27.9c-5.1-7.2-8.8-14.9-10-23.7l-.7-5.9V87.4l.2-1.1c.5-3.2.7-6.4,1.5-9.4A61.1,61.1,0,0,1,93.5,30.2c22.5,3.6,38.3,16.4,47.7,37.3.5,1.1.8,2.2,1.4,3.4l.5-1.1a61.7,61.7,0,0,1,66-39.9,59.2,59.2,0,0,1,38.5,20.6,60.8,60.8,0,0,1,14.9,44.8,51,51,0,0,1-8.2,25.3,177.4,177.4,0,0,1-15.8,20.4,556.4,556.4,0,0,1-77,71.1C155.5,216.9,149.4,221.5,142.2,224.2Z" transform="translate(-11.7 -19)"/></g><g id="Layer_1-2" data-name="Layer 1-2"><path class="cls-3" d="M141.8,222.2,216.2,94.8s-36.1-19.1-68.1-10.6Z" transform="translate(-11.7 -19)"/><line class="cls-4" x1="129.4" y1="206.2" x2="204.6" y2="76.1"/><path class="cls-1" d="M181.9,94.8a6.5,6.5,0,0,1,2.4-2.4,5.4,5.4,0,0,1,5.7.2,5.6,5.6,0,0,1,2.5,5.4,8.9,8.9,0,0,1-2.9,6.1c-1.8,1.7-3.7,3.4-5.6,5l-2,1.8c-2.6-2.6-5.5-4.7-8.1-7.4a8.3,8.3,0,0,1-2.3-7.5,5.4,5.4,0,0,1,8.8-3A7.9,7.9,0,0,1,181.9,94.8Z" transform="translate(-11.7 -19)"/><path class="cls-5" d="M114.2,212.8s29-22.6,57.1-2.1" transform="translate(-11.7 -19)"/><path class="cls-5" d="M83.2,186.4c57.8-40.9,119.3-4.5,119.3-4.5" transform="translate(-11.7 -19)"/><path class="cls-5" d="M51.6,154.1s96.3-58.8,183.2,0" transform="translate(-11.7 -19)"/></g></g></svg>