<svg id="Layer_1" data-name="Layer 1" xmlns="http://www.w3.org/2000/svg" viewBox="0 0 360 360"><defs><style>.cls-1{fill:#fff;}</style></defs><title>Watermark</title><path class="cls-1" d="M93.3,149.1,74.1,210.2h-4l-18.1-53q-.3-1.1-.6-2.2-.3,1.2-.6,2.2l-18.1,53H28.8L9.6,149.1h3.7a1.5,1.5,0,0,1,1.6,1.2l15.4,50.2q.5,1.7.9,3.9l.4-2.1a16.2,16.2,0,0,1,.5-1.8l17.3-50.2a1.9,1.9,0,0,1,.6-.8,1.6,1.6,0,0,1,1-.3h1.2a1.5,1.5,0,0,1,1,.3,2.2,2.2,0,0,1,.6.8l17.3,50.2a16.3,16.3,0,0,1,.5,1.8l.5,2.1.4-2.1.4-1.8,15.4-50.2a1.5,1.5,0,0,1,.6-.8,1.7,1.7,0,0,1,1.1-.3Z"/><path class="cls-1" d="M99.6,187v.8a29.1,29.1,0,0,0,1.1,8.5,17.4,17.4,0,0,0,3.2,6.2,13.2,13.2,0,0,0,5,3.7,16.6,16.6,0,0,0,6.6,1.3,19.7,19.7,0,0,0,5.6-.7,20.9,20.9,0,0,0,4-1.6l2.6-1.6a2.9,2.9,0,0,1,1.4-.7,1,1,0,0,1,.9.4l1.1,1.4a11.7,11.7,0,0,1-2.7,2.4,19.6,19.6,0,0,1-3.8,1.9,27.6,27.6,0,0,1-4.5,1.3,24.7,24.7,0,0,1-4.8.5,20.4,20.4,0,0,1-8-1.5,17,17,0,0,1-6.2-4.5,20.3,20.3,0,0,1-4-7.2,31.1,31.1,0,0,1-1.4-9.7,26.6,26.6,0,0,1,1.3-8.5,19.5,19.5,0,0,1,3.8-6.7,17.3,17.3,0,0,1,6.1-4.4,20,20,0,0,1,8.2-1.6,17.9,17.9,0,0,1,6.7,1.3,15.3,15.3,0,0,1,5.4,3.7,17.2,17.2,0,0,1,3.6,5.9,22.7,22.7,0,0,1,1.3,8,2.3,2.3,0,0,1-.3,1.3,1,1,0,0,1-.9.3Zm28.7-2.6a18.5,18.5,0,0,0-1-6.2,13.2,13.2,0,0,0-2.7-4.6,12,12,0,0,0-4.2-2.9,13.9,13.9,0,0,0-5.4-1,16.2,16.2,0,0,0-6,1,13,13,0,0,0-4.6,3,14.9,14.9,0,0,0-3.1,4.7,21.7,21.7,0,0,0-1.6,6.1Z"/><path class="cls-1" d="M142,173.3a25,25,0,0,1,7.1-5.1,19.7,19.7,0,0,1,8.4-1.7,15.4,15.4,0,0,1,6,1.1,11.2,11.2,0,0,1,4.3,3.2,13.8,13.8,0,0,1,2.6,5,22.8,22.8,0,0,1,.9,6.5v28h-1.6A1.5,1.5,0,0,1,168,209l-.6-5.5a45.1,45.1,0,0,1-3.5,3.1,21.1,21.1,0,0,1-3.7,2.3,18.7,18.7,0,0,1-4.1,1.5,21.1,21.1,0,0,1-4.8.5,14.3,14.3,0,0,1-4.3-.6,10.8,10.8,0,0,1-3.7-2,9.6,9.6,0,0,1-2.6-3.4,11.9,11.9,0,0,1-1-5,8.9,8.9,0,0,1,1.6-5.1,12.7,12.7,0,0,1,4.9-4.1,32.4,32.4,0,0,1,8.5-2.8,74,74,0,0,1,12.5-1.2v-4.5q0-6-2.6-9.2t-7.6-3.2a14.4,14.4,0,0,0-5.3.9,18.8,18.8,0,0,0-3.7,1.9l-2.5,1.9a2.7,2.7,0,0,1-1.6.9l-.8-.2-.5-.6Zm25.3,16.1a80.7,80.7,0,0,0-10.6,1,30.4,30.4,0,0,0-7.3,2.1,10.9,10.9,0,0,0-4.3,3.1,6.5,6.5,0,0,0-1.4,4.1,9,9,0,0,0,.7,3.7,7.3,7.3,0,0,0,1.9,2.6,7.6,7.6,0,0,0,2.7,1.5,11,11,0,0,0,3.2.5,18.4,18.4,0,0,0,4.6-.5,17,17,0,0,0,3.9-1.5,19,19,0,0,0,3.3-2.3l3.1-2.9Z"/><path class="cls-1" d="M188.9,177.6a26.8,26.8,0,0,1,2.3-4.7,14.8,14.8,0,0,1,2.9-3.5,12.1,12.1,0,0,1,3.7-2.2,13.1,13.1,0,0,1,4.6-.8l2.6.2a6.7,6.7,0,0,1,2.3.8l-.3,2.9a.8.8,0,0,1-.8.7l-1.6-.3a10.5,10.5,0,0,0-2.8-.3,12.1,12.1,0,0,0-4.4.8,10.2,10.2,0,0,0-3.5,2.3,14.6,14.6,0,0,0-2.7,3.7,35.4,35.4,0,0,0-2.1,5.1v27.8H185v-43h2.2a1.4,1.4,0,0,1,1,.3,1.7,1.7,0,0,1,.4,1Z"/><path class="cls-1" d="M259.1,210.2h-3.4a1.5,1.5,0,0,1-1-.3,2.1,2.1,0,0,1-.6-.8l-7.2-17.8h-30l-7.2,17.8a1.8,1.8,0,0,1-.6.8,1.6,1.6,0,0,1-1,.3h-3.4l25-61.1h4.4ZM245.6,188l-12.4-30.9a30.9,30.9,0,0,1-1.3-3.6l-.6,2-.6,1.7L218.2,188Z"/><path class="cls-1" d="M267,210.2v-43h2.3a1.1,1.1,0,0,1,1.3,1.1l.4,6.2a22.4,22.4,0,0,1,5.7-5.8,12.7,12.7,0,0,1,7.3-2.2,10.4,10.4,0,0,1,7.5,2.7,14.1,14.1,0,0,1,3.8,7.6,15,15,0,0,1,2.2-4.6,13.7,13.7,0,0,1,3.2-3.2,13,13,0,0,1,4-1.9,16,16,0,0,1,4.4-.6,14.9,14.9,0,0,1,5.7,1.1,11.3,11.3,0,0,1,4.3,3.1,14.4,14.4,0,0,1,2.7,5.1,23,23,0,0,1,1,6.9v27.5h-4.1V182.7q0-6.3-2.7-9.6a9.5,9.5,0,0,0-7.8-3.3,11.5,11.5,0,0,0-4.3.8,10.4,10.4,0,0,0-3.6,2.4,11.7,11.7,0,0,0-2.5,4,15.6,15.6,0,0,0-.9,5.6v27.5h-4.1V182.7q0-6.3-2.5-9.6a8.5,8.5,0,0,0-7.3-3.3,11.1,11.1,0,0,0-6.5,2.1,19.8,19.8,0,0,0-5.3,5.7v32.6Z"/><path class="cls-1" d="M342.2,210.2h-4.5V149.1h4.5Z"/><path class="cls-1" d="M350.2,149.1v4.5H329.6v-4.5Z"/><path class="cls-1" d="M350.2,205.8v4.5H329.6v-4.5Z"/></svg>